<svg width="87" height="170" viewBox="0 0 87 170" xmlns="http://www.w3.org/2000/svg" xmlns:xlink="http://www.w3.org/1999/xlink"><title>Cactus</title><defs><path d="M0 0h51.577L40.979 38.047c-1.39 1.496-28.966 1.49-30.381 0L0 0z" id="a"/></defs><g fill="none" fill-rule="evenodd"><path d="M43.146 128.84c14.243 0 25.789-1.753 25.789-3.916 0-2.163-11.546-3.916-25.789-3.916-14.242 0-25.788 1.753-25.788 3.916 0 2.163 11.546 3.917 25.788 3.917z" fill="#6C5E44"/><g fill="#77BC8B"><path d="M.248 40.729v35.63c0 6.555 2.125 12.42 7.648 17.042 6.097 5.102 15.402 7.564 28.468 7.564a9.175 9.175 0 1 0 0-18.35c-9.153 0-14.434-1.397-16.693-3.287-.819-.685-1.074-1.388-1.074-2.969v-5.905-25.488-4.237-1.55a9.175 9.175 0 1 0-18.349 0v1.55z"/><path d="M33.723 132.636a9.175 9.175 0 0 0 18.35 0V9.423a9.175 9.175 0 0 0-18.35 0v123.213z"/><path d="M67.725 28.324v29.628c0 1.076-.252 1.685-1.044 2.324-2.063 1.664-6.567 2.876-14.112 2.876a9.175 9.175 0 0 0 0 18.35c11.378 0 19.852-2.281 25.633-6.945 5.421-4.373 7.872-10.298 7.872-16.605V33.587v-5.263-2.04a9.175 9.175 0 1 0-18.35 0v2.04z"/></g><g opacity=".648" stroke="#A2D5B1" stroke-width="2" stroke-linecap="square"><path d="M9.67 56.288l3.472-2.48M21.722 94.759l4.166.92M37.17 55.757l2.48 3.471M9.43 89.673l1.968-3.786M5.464 65.987l-1.497-3.995M43.786 66.342l2.099-3.714M45.794 38.783l3.383-2.6M43.925 52.671l4.194-.78M38.1 15.444l2.039 3.748M43.999 11.117l4.047 1.351M38.12 7.31l3.556-2.358M55.7 71.795l-4.165-.92M10.91 39.59l1.767-3.883M31.244 89.836l.774-4.196M7.355 46.896L3.472 45.13M18.586 84.427l2.419 3.514M49.364 96.124l-3.911 1.704M47.314 25.928l-2.038-3.748M63.734 69.26l1.065-4.131M80.556 44.913l1.065-4.131M41.449 45.725l-2.658-3.337M60.318 77.36l3.783-1.973M13.499 68.893l1.766-3.884M6.943 76.374l3.883 1.766M40.35 29.091l-2.476 3.475M46.04 77.95l1.071 4.13M73.12 35.626l1.07 4.13M80.893 29.587l-2.476 3.475M72.942 22.752l2.295 3.597M75.081 68.992l-3.427 2.54M72.584 57.274l1.566 3.969M40.157 77.032l-2.773-3.242M44.766 118.242l3.144-2.884M41.92 107.83l-1.422 4.022M79.16 55.084l3.785 1.968M37.802 121.918l4.09 1.21M40.394 90.768l1.63-3.942M36.233 97.65l1.84 3.849"/></g><ellipse fill="#D4B984" opacity=".322" cx="43.394" cy="161.922" rx="35.955" ry="7.191"/><g><g transform="translate(17.358 124.863)"><mask id="b" fill="#fff"><use xlink:href="#a"/></mask><use fill="#B39C74" xlink:href="#a"/><path d="M25.768 39.184c-11.728 3.02-15.17-1.137-15.17-1.137L0 0h25.768s.33 39.098 0 39.184z" fill="#A6916D" mask="url(#b)"/></g><path d="M17.358 124.676c0 2.163 11.546 3.917 25.788 3.917 14.243 0 25.789-1.754 25.789-3.917" fill="#6C5E44"/></g></g></svg>