<svg width="41" height="29" viewBox="0 0 41 29" xmlns="http://www.w3.org/2000/svg"><title>docs</title><path d="M11.708 24.034c-.483 0-.97-.17-1.358-.515L0 14.319l10.925-9.712a2.045 2.045 0 0 1 2.716 3.058l-7.484 6.653 6.91 6.14a2.045 2.045 0 0 1-1.359 3.576zm18.297-.004l10.925-9.712-10.35-9.2a2.045 2.045 0 0 0-2.716 3.058l6.909 6.142-7.485 6.652a2.045 2.045 0 0 0 2.717 3.06zm-9.569 2.899l4.091-24.546A2.045 2.045 0 0 0 22.846.03a2.037 2.037 0 0 0-2.353 1.681l-4.09 24.546a2.045 2.045 0 1 0 4.033.673z" fill="#F5F7F8" fill-rule="evenodd"/></svg>