<svg width="835" height="175" viewBox="0 0 835 175" xmlns="http://www.w3.org/2000/svg"><title>Mountains</title><g fill="none" fill-rule="evenodd"><path fill="#D6E0E5" d="M1 89l37-54 6 12L60 9l21 46 21-23 21 41 20-22 12-51 25 37 10 27 26 18 23-36 14 23 40-2 17 28 39-7 28 26 9-12 52 7 47 7 61-5 29 15 31-34 22-20 18 18 31 14 19-31 31-24 20 34 34 12 18-28 42-21 6 86-3 32H.867z"/><path fill="#CBD8DD" d="M-145 101l37-54 6 12 16-38 21 46 21-23 21 41 20-22L9 12l25 37 10 27 26 18 23-36 14 23 44 30 30-30 22 19 28 26 9-12 52 7 47 7 61-5 22 5 28-12 20 7 28-23 33 16h32l23-37 36 16 13 12 18-28 42-21 32 37 34-28 20 18 20 10 41-16v90l-987.133 7z"/></g></svg>