<svg width="39" height="24" viewBox="0 0 39 24" xmlns="http://www.w3.org/2000/svg"><title>plugins</title><path d="M0 19.5v2.921c0 .54.439.979.979.979h1.944a.98.98 0 0 0 .977-.979V19.5c0-1.87 1.562-4.432 3.9-5.42V9.977C3.284 11.021 0 15.541 0 19.5zM23.527 1.367l-4.934 3.701c-.676.507-1.5.782-2.346.782H11.71a1.96 1.96 0 0 0-1.96 1.96v7.782a1.96 1.96 0 0 0 1.96 1.958h4.537c.847 0 1.67.275 2.346.782l4.936 3.701a6.828 6.828 0 0 0 4.099 1.367H31.2V0h-3.572c-1.479 0-2.918.48-4.101 1.367zM33.15 3.9v3.9H39V3.9h-5.85zm0 15.6H39v-3.9h-5.85v3.9z" fill="#F5F7F8" fill-rule="evenodd"/></svg>