<svg width="835" height="164" viewBox="0 0 835 164" xmlns="http://www.w3.org/2000/svg" xmlns:xlink="http://www.w3.org/1999/xlink"><title>Sand</title><defs><linearGradient x1="49.405%" y1="100%" x2="49.405%" y2="23.414%" id="b"><stop stop-color="#FFF" stop-opacity=".5" offset="0%"/><stop stop-opacity=".5" offset="100%"/></linearGradient><path d="M7.027 107.554S-36.406 84.043 208 94.444c65.29 2.779 176.848 29.49 237 34 69.74 5.23 112 .945 190 0C860.309 125.714 851 82 851 82v83H7.027v-57.446z" id="a"/></defs><g fill="none" fill-rule="evenodd"><path d="M-8 34S-44.116 1.464 63-.004c28.166-.386 62.114 19.834 113 22 63.897 2.719 109.146 16.696 163 22.002 40.127 3.953 115.398 20.008 181 20.998 65.602.99 115.745-20.998 163-20.998C909 43.998 846 7 846 7v157H-8V34z" fill="#ECD79D"/><path d="M0 79s13.14-36.657 257.546-26.255c140.987 6 46 50 272 50 73.643 0 127.19-12.534 173.973-30C800.306 36.61 843 81 843 81v83H0V79z" fill="#E6D097"/><g transform="translate(-14 -1)"><use fill="#D4B984" xlink:href="#a"/><use fill-opacity=".2" fill="url(#b)" style="mix-blend-mode:overlay" xlink:href="#a"/></g></g></svg>