<svg width="155" height="64" viewBox="0 0 155 64" xmlns="http://www.w3.org/2000/svg"><title>spike-text</title><path d="M60.49 21.104c0 3.726-3.024 6.68-6.705 6.68h-6.837V8.387h6.837c3.681 0 6.705 2.955 6.705 6.552v6.166zM40.637.164c-1.051 0-2.103.9-2.103 2.056V61.7c0 1.028 1.052 2.056 2.103 2.056h4.208c1.183 0 2.103-1.028 2.103-2.056V36.006h6.837c8.283 0 15.12-6.68 15.12-14.902v-6.166c0-8.093-6.837-14.773-15.12-14.773H40.637zm43.08 2.056c0-1.156-1.051-2.055-2.103-2.055h-4.207c-1.183 0-2.104.899-2.104 2.055V61.7c0 1.155.92 2.055 2.104 2.055h4.207c1.183 0 2.104-.9 2.104-2.056V2.22zm39.531 0c0-1.156-.92-2.055-2.103-2.055h-4.207c-1.184 0-2.104.899-2.104 2.055v18.884c0 3.726-3.024 6.68-6.837 6.68h-6.705V2.22c0-1.156-.92-2.055-2.104-2.055h-4.207c-1.183 0-2.104.899-2.104 2.055V61.7c0 1.028.92 2.056 2.104 2.056h4.207c1.183 0 2.104-1.028 2.104-2.056V36.006h6.705c3.813 0 6.837 2.955 6.837 6.552v19.141c0 1.028.92 2.056 2.104 2.056h4.207c1.183 0 2.103-1.028 2.103-2.056V42.558c0-4.24-1.84-7.965-4.733-10.663 2.893-2.697 4.733-6.551 4.733-10.79V2.22zm29.013 6.166c1.183 0 2.103-.899 2.103-2.055v-4.11c0-1.157-.92-2.056-2.103-2.056h-15.646c-2.366 0-4.207 1.798-4.207 4.11v55.369c0 2.184 1.84 4.11 4.207 4.11h15.646c1.183 0 2.103-.899 2.103-2.055v-4.11c0-1.157-.92-2.056-2.103-2.056h-11.439V36.006h11.439c1.183 0 2.103-.899 2.103-2.055V29.84c0-1.156-.92-2.055-2.103-2.055h-11.439V8.386h11.439zM30.242 16.648v-2.656C30.242 5.327 23.39-.15 15.064.105 6.816.358.146 6.127.146 14.727c0 4.079 1.43 7.86 4.081 11.652 1.872 2.678 3.742 4.712 7.853 8.814l.4.4.397.396c6.502 6.5 8.777 9.81 8.777 13.621 0 3.63-2.696 5.843-6.58 5.846-3.886.004-6.574-2.205-6.574-5.867v-2.542c0-.305.002-.305 0-.37-.09-2.937-1.85-2.937-4.132-2.937-2.282 0-4.132 0-4.132 2.937v2.912c0 8.463 6.677 13.949 14.844 13.942 8.158-.006 14.838-5.49 14.838-13.921 0-3.802-1.32-7.347-3.767-10.906-1.758-2.556-3.694-4.69-7.363-8.359a661.56 661.56 0 0 0-.403-.401l-.4-.4c-3.77-3.76-5.429-5.566-6.934-7.72-1.782-2.549-2.64-4.819-2.64-7.097 0-3.943 2.872-6.427 6.913-6.551 3.946-.122 6.654 2.044 6.654 5.816v3.031c0 2.936 1.85 2.936 4.132 2.936 2.282 0 4.132 0 4.132-2.936v-.375z" fill="#4F5354" fill-rule="evenodd"/></svg>