<svg width="85" height="30" viewBox="0 0 85 30" xmlns="http://www.w3.org/2000/svg"><title>Sunglasses</title><g fill="none" fill-rule="evenodd"><path d="M1.429 1.736C.453 2.823.68 5.155 1.824 5.303c1.144.148 2.287.818 2.287 1.29 0 11.419 3.968 22.566 18.012 22.566 13.223 0 17.972-8.656 17.972-19.14 0-1.741 2.438-1.531 2.438-1.531V4.861c-2.143 0-5.206-1.746-5.789-2.074C34.137 1.318 29.62 0 21.892 0 13.425 0 2.187.893 1.429 1.736z" fill="#505050"/><path d="M83.623 1.736c.977 1.087.75 3.419-.395 3.567-1.144.148-2.286.818-2.286 1.29 0 11.419-3.968 22.566-18.013 22.566-13.223 0-17.971-8.656-17.971-19.14 0-1.741-2.438-1.531-2.438-1.531V4.861c2.143 0 5.205-1.746 5.788-2.074C50.915 1.318 55.434 0 63.16 0c8.467 0 19.706.893 20.463 1.736z" fill="#505050"/><path d="M4.606 3.791c1.047 0 1.896-.283 1.896-.632 0-.348-.85-.631-1.896-.631-1.047 0-1.896.283-1.896.631 0 .35.849.632 1.896.632zm75.828 0c-1.047 0-1.896-.283-1.896-.632 0-.348.849-.631 1.896-.631s1.895.283 1.895.631c0 .35-.848.632-1.895.632z" fill="#D8D8D8"/><path d="M6.837 7.717c0 9.987 3.34 19 15.165 19s15.168-8.507 15.166-19c0-.79-1.888-5.55-15.36-5.55-13.473 0-14.971 4.88-14.971 5.55zm71.519-.051c0 10.063-3.366 19.144-15.28 19.144s-15.283-8.572-15.28-19.144c0-.796 1.901-5.592 15.476-5.592 13.575 0 15.084 4.917 15.084 5.592" fill="#7B7B7B"/></g></svg>