<svg width="81" height="81" viewBox="0 0 81 81" xmlns="http://www.w3.org/2000/svg"><title>Group 8</title><g stroke="#A08B67" stroke-width="2" fill="none" fill-rule="evenodd" stroke-linecap="round"><path d="M53.058 75.966s-39.525-4.94-39.525-38.701c0-20.586 16.469-23.88 16.469-23.88M14.356 45.5s-13.175 0-6.587-14.823m63.703 1.647s5.477-12.351-1.945-19.762"/><path d="M53.881 75.143s-25.526-4.94-28.82-27.173c-3.294-22.233 9.881-21.41 9.881-21.41m18.939 47.76S44 43.029 16.827 43.029"/><path d="M53.058 75.143S46.47 55.38 19.297 55.38c-7.336 0-3.294 9.882 0 9.882m34.584 9.058S27.531 61.968 39.06 39.735m4.117 16.469s-23.057 0-11.529-22.233m29.644 33.761s11.528 3.294 11.528-8.234M25.06 76.177s23.88 8.586 23.88-2.942M25.884 70.85s4.941-1.867 7.411 6.889m16.469-27.654c-5.764-.469-7.41-6.89-7.41-6.89m-1.648-26.516c-4.597 3.508-12.058.237-12.058.237m27.704 11.291c-4.598 3.509-12.058.237-12.058.237M5.545 38.768c-5.595-1.463-4.364-5.62-4.364-5.62m17.488-14.249c-4.115-4.065-.97-7.05-.97-7.05"/><path d="M53.116 76.124s31.335-24.592 13.947-53.531C56.46 4.947 40.647 10.606 40.647 10.606"/><path d="M52.234 75.143s16.552-8.035 7.925-28.789c-8.627-20.753-20.276-9.913-20.276-9.913"/><path d="M48.94 68.555s18.505-15.484 9.878-36.237C50.191 11.564 44.823 1.857 44.823 1.857m21.41 20.586S40.512 24.981 33.295 7.621m21.796 65.394s-7.646-31.91 15.646-45.905M52.234 75.966s42.82-39.525-7.41-56.817m9.881 55.994S1.592 39.509 24.885 25.514"/><path d="M54.1 74.572s-4.532-20.333 18.76-34.328c6.289-3.779 7.913 6.773 5.09 8.47M45.647 73.496S63.677 33.2 26.143 22.287m21.974 18.272s10.705-13.999-9.058-18.94M79.147 26.3c-.469 5.763-6.89 7.41-6.89 7.41m4.878 30.884c-2.861 5.026-9.376 3.805-9.376 3.805M29.337 30.295c-2.86 5.026-9.376 3.805-9.376 3.805"/></g></svg>